<svg width="27" height="24" viewBox="0 0 27 24" fill="none" xmlns="http://www.w3.org/2000/svg">
<path d="M23.2441 3.61586C22.6735 3.04493 21.9959 2.59204 21.2502 2.28304C20.5045 1.97404 19.7051 1.815 18.8979 1.815C18.0907 1.815 17.2914 1.97404 16.5457 2.28304C15.7999 2.59204 15.1224 3.04493 14.5517 3.61586L13.3674 4.80017L12.1831 3.61586C11.0304 2.46317 9.46703 1.8156 7.83689 1.8156C6.20675 1.8156 4.64337 2.46317 3.49069 3.61586C2.338 4.76854 1.69043 6.33192 1.69043 7.96207C1.69043 9.59221 2.338 11.1556 3.49069 12.3083L4.675 13.4926L13.3674 22.185L22.0598 13.4926L23.2441 12.3083C23.8151 11.7376 24.268 11.0601 24.5769 10.3143C24.8859 9.56859 25.045 8.76929 25.045 7.96207C25.045 7.15485 24.8859 6.35554 24.5769 5.6098C24.268 4.86406 23.8151 4.18651 23.2441 3.61586Z" fill="#0086C9" stroke="#0086C9" stroke-width="2" stroke-linecap="round" stroke-linejoin="round"/>
</svg>
