<svg width="11" height="13" viewBox="0 0 11 13" fill="none" xmlns="http://www.w3.org/2000/svg">
<path d="M2.25 2.96055C2.25 2.81689 2.30707 2.67912 2.40865 2.57753C2.51023 2.47595 2.64801 2.41888 2.79167 2.41888H8.20833C8.35199 2.41888 8.48977 2.47595 8.59135 2.57753C8.69293 2.67912 8.75 2.81689 8.75 2.96055C8.75 3.10421 8.69293 3.24198 8.59135 3.34357C8.48977 3.44515 8.35199 3.50222 8.20833 3.50222H2.79167C2.64801 3.50222 2.51023 3.44515 2.40865 3.34357C2.30707 3.24198 2.25 3.10421 2.25 2.96055Z" fill="black"/>
<path d="M2.25 5.12724C2.25 4.98358 2.30707 4.8458 2.40865 4.74422C2.51023 4.64264 2.64801 4.58557 2.79167 4.58557H8.20833C8.35199 4.58557 8.48977 4.64264 8.59135 4.74422C8.69293 4.8458 8.75 4.98358 8.75 5.12724C8.75 5.2709 8.69293 5.40867 8.59135 5.51025C8.48977 5.61184 8.35199 5.6689 8.20833 5.6689H2.79167C2.64801 5.6689 2.51023 5.61184 2.40865 5.51025C2.30707 5.40867 2.25 5.2709 2.25 5.12724Z" fill="black"/>
<path d="M2.79167 6.7522C2.64801 6.7522 2.51023 6.80927 2.40865 6.91085C2.30707 7.01243 2.25 7.1502 2.25 7.29386C2.25 7.43752 2.30707 7.5753 2.40865 7.67688C2.51023 7.77846 2.64801 7.83553 2.79167 7.83553H8.20833C8.35199 7.83553 8.48977 7.77846 8.59135 7.67688C8.69293 7.5753 8.75 7.43752 8.75 7.29386C8.75 7.1502 8.69293 7.01243 8.59135 6.91085C8.48977 6.80927 8.35199 6.7522 8.20833 6.7522H2.79167Z" fill="black"/>
<path d="M2.25 9.46055C2.25 9.31689 2.30707 9.17912 2.40865 9.07753C2.51023 8.97595 2.64801 8.91888 2.79167 8.91888H4.95833C5.10199 8.91888 5.23977 8.97595 5.34135 9.07753C5.44293 9.17912 5.5 9.31689 5.5 9.46055C5.5 9.60421 5.44293 9.74199 5.34135 9.84357C5.23977 9.94515 5.10199 10.0022 4.95833 10.0022H2.79167C2.64801 10.0022 2.51023 9.94515 2.40865 9.84357C2.30707 9.74199 2.25 9.60421 2.25 9.46055Z" fill="black"/>
<path fill-rule="evenodd" clip-rule="evenodd" d="M0.0834961 1.8772C0.0834961 1.44622 0.254701 1.0329 0.559448 0.728149C0.864194 0.423402 1.27752 0.252197 1.7085 0.252197H9.29183C9.72281 0.252197 10.1361 0.423402 10.4409 0.728149C10.7456 1.0329 10.9168 1.44622 10.9168 1.8772V10.5439C10.9168 10.9748 10.7456 11.3882 10.4409 11.6929C10.1361 11.9977 9.72281 12.1689 9.29183 12.1689H1.7085C1.27752 12.1689 0.864194 11.9977 0.559448 11.6929C0.254701 11.3882 0.0834961 10.9748 0.0834961 10.5439V1.8772ZM1.7085 1.33553H9.29183C9.43549 1.33553 9.57326 1.3926 9.67485 1.49418C9.77643 1.59576 9.8335 1.73354 9.8335 1.8772V10.5439C9.8335 10.6875 9.77643 10.8253 9.67485 10.9269C9.57326 11.0285 9.43549 11.0855 9.29183 11.0855H1.7085C1.56484 11.0855 1.42706 11.0285 1.32548 10.9269C1.2239 10.8253 1.16683 10.6875 1.16683 10.5439V1.8772C1.16683 1.73354 1.2239 1.59576 1.32548 1.49418C1.42706 1.3926 1.56484 1.33553 1.7085 1.33553Z" fill="black"/>
</svg>
