<svg width="25" height="22" viewBox="0 0 25 22" fill="none" xmlns="http://www.w3.org/2000/svg">
<path d="M22.015 2.92264C21.4653 2.37261 20.8125 1.93629 20.0941 1.6386C19.3756 1.3409 18.6055 1.18768 17.8279 1.18768C17.0502 1.18768 16.2801 1.3409 15.5617 1.6386C14.8432 1.93629 14.1905 2.37261 13.6407 2.92264L12.4997 4.06362L11.3587 2.92264C10.2482 1.81214 8.74205 1.18826 7.17156 1.18826C5.60106 1.18826 4.09489 1.81214 2.98438 2.92264C1.87388 4.03315 1.25 5.53932 1.25 7.10982C1.25 8.68031 1.87388 10.1865 2.98438 11.297L4.12536 12.438L12.4997 20.8123L20.8741 12.438L22.015 11.297C22.5651 10.7472 23.0014 10.0945 23.2991 9.37601C23.5968 8.65756 23.75 7.8875 23.75 7.10982C23.75 6.33214 23.5968 5.56208 23.2991 4.84363C23.0014 4.12518 22.5651 3.47242 22.015 2.92264Z" stroke="#0086C9" stroke-width="2" stroke-linecap="round" stroke-linejoin="round"/>
</svg>
