<svg width="20" height="25" viewBox="0 0 20 25" fill="none" xmlns="http://www.w3.org/2000/svg">
<path d="M20 12.5C20 11.1212 18.8788 10 17.5 10H16.25V6.25C16.25 2.80375 13.4462 0 10 0C6.55375 0 3.75 2.80375 3.75 6.25V10H2.5C1.12125 10 0 11.1212 0 12.5V22.5C0 23.8788 1.12125 25 2.5 25H17.5C18.8788 25 20 23.8788 20 22.5V12.5ZM6.25 6.25C6.25 4.1825 7.9325 2.5 10 2.5C12.0675 2.5 13.75 4.1825 13.75 6.25V10H6.25V6.25Z" fill="#0086C9"/>
<g clip-path="url(#clip0_910_40327)">
<path d="M6.10712 18.5864L5.60867 20.7377C5.59147 20.8163 5.59206 20.8978 5.61039 20.9762C5.62872 21.0545 5.66433 21.1278 5.71462 21.1907C5.7649 21.2536 5.8286 21.3044 5.90104 21.3395C5.97349 21.3746 6.05286 21.393 6.13336 21.3935C6.17086 21.3973 6.20866 21.3973 6.24617 21.3935L8.41052 20.8951L12.5661 16.7552L10.2469 14.4414L6.10712 18.5864Z" fill="white"/>
<path d="M13.8726 14.6827L12.3248 13.1349C12.223 13.0336 12.0853 12.9768 11.9418 12.9768C11.7982 12.9768 11.6605 13.0336 11.5587 13.1349L10.6982 13.9954L13.0148 16.3119L13.8753 15.4514C13.9256 15.4008 13.9655 15.3407 13.9926 15.2747C14.0197 15.2086 14.0336 15.1379 14.0333 15.0665C14.0331 14.9951 14.0188 14.9245 13.9912 14.8586C13.9636 14.7928 13.9233 14.733 13.8726 14.6827V14.6827Z" fill="white"/>
</g>
<defs>
<clipPath id="clip0_910_40327">
<rect width="9.44444" height="9.44444" fill="white" transform="translate(5 12.5)"/>
</clipPath>
</defs>
</svg>
