<svg width="29" height="30" viewBox="0 0 29 30" fill="none" xmlns="http://www.w3.org/2000/svg">
<path d="M28.3847 3.80073C29.01 4.74296 28.9546 6.01633 28.2486 6.89845C27.7134 7.56651 26.9262 7.9182 26.0699 7.88498C25.4314 7.85915 24.8883 8.04527 24.5139 8.42016L20.4903 12.3911C20.6699 12.5897 20.7597 12.9306 20.7597 13.414C20.7597 14.139 20.3754 14.4316 20.2293 14.5777C17.9837 16.8228 16.5242 19.5319 16.008 22.4108C15.7164 24.039 14.9424 25.5191 13.7692 26.6923C12.238 28.2235 10.2159 29.0603 8.05777 29.0603C7.99291 29.0603 7.92859 29.0592 7.86373 29.0576C5.63442 29.0059 3.577 28.0674 2.07058 26.4144C-0.779324 23.2882 -0.672815 18.296 2.3068 15.2868C3.60337 13.9781 5.32333 13.1456 7.15138 12.9426C10.2254 12.602 12.9261 11.3455 14.9619 9.30914C15.5888 8.68222 16.4303 8.33 17.3314 8.31682L17.9135 8.30785L21.1579 5.06355C21.5327 4.68865 21.7231 4.13607 21.693 3.50809C21.6524 2.65813 22.0115 1.86405 22.679 1.32887C23.5606 0.623381 24.8335 0.566963 25.7757 1.19178C26.2713 1.52133 26.6304 1.99113 26.8144 2.55109C26.8482 2.65549 26.9215 2.72878 27.0248 2.76253C27.5853 2.94654 28.0556 3.30614 28.3847 3.80073ZM14.9693 22.2236C15.4886 19.3289 17.1327 16.0287 19.513 13.6431L17.39 14.2956V13.414V12.3911L15.5382 13.008L16.5901 9.50265C16.259 9.6176 15.9574 9.80425 15.7064 10.0547C13.4992 12.2624 10.5808 13.6233 7.26633 13.9908C5.65498 14.1695 4.19866 14.8745 3.05553 16.0287C0.463985 18.6456 0.371712 22.9855 2.84937 25.7036C4.16017 27.1415 5.9492 27.9583 7.88746 28.0031C9.84258 28.0442 11.6511 27.3176 13.0231 25.9462C14.0428 24.9259 14.7162 23.6394 14.9693 22.2236ZM27.425 6.23831C27.8405 5.71947 27.8753 4.93964 27.5067 4.38442C27.3101 4.08809 27.0301 3.87349 26.6969 3.76434C26.651 3.74905 26.6114 3.72427 26.5677 3.70476C26.5055 3.73271 26.4369 3.74853 26.3647 3.75011C25.9059 3.75907 25.4667 3.96102 25.1593 4.30375C25.0555 4.41974 24.911 4.4788 24.767 4.4788C24.6415 4.4788 24.5155 4.43451 24.4148 4.34382C24.1981 4.14978 24.1802 3.81602 24.3747 3.59931C24.7454 3.18593 25.2347 2.90067 25.7673 2.77254C25.6492 2.48834 25.4557 2.24527 25.192 2.07022C24.6368 1.7006 23.857 1.7354 23.3381 2.15142C22.9374 2.47305 22.7217 2.94865 22.7465 3.45747C22.7908 4.38705 22.4908 5.22225 21.9034 5.80911L17.4696 10.2429L17.1327 11.3655L18.4445 10.9279V12.5255C18.7625 12.5086 19.0614 12.38 19.2881 12.1527L23.7673 7.67355C24.3542 7.08564 25.1852 6.7872 26.1195 6.83044C26.6257 6.85891 27.1039 6.63956 27.425 6.23831ZM5.78997 15.3506C6.66208 15.3506 7.37179 16.0598 7.37179 16.9325C7.37179 17.8046 6.66208 18.5143 5.78997 18.5143C4.91786 18.5143 4.20815 17.8046 4.20815 16.9325C4.20815 16.0603 4.91786 15.3506 5.78997 15.3506ZM5.78997 17.4597C6.08102 17.4597 6.31724 17.2235 6.31724 16.9325C6.31724 16.6414 6.08102 16.4052 5.78997 16.4052C5.49891 16.4052 5.26269 16.6414 5.26269 16.9325C5.26269 17.2235 5.49891 17.4597 5.78997 17.4597ZM13.9991 20.2158C14.2854 20.2669 14.4768 20.5406 14.4256 20.8279C14.3107 21.4728 14.1087 22.1018 13.8256 22.6982C13.7354 22.888 13.5461 22.9993 13.3489 22.9993C13.273 22.9993 13.1966 22.9824 13.1233 22.9481C12.8602 22.8231 12.7479 22.5089 12.8728 22.2458C13.1159 21.7338 13.2888 21.1949 13.3874 20.6423C13.4381 20.356 13.7064 20.1609 13.9991 20.2158ZM11.9754 23.6547C12.1599 23.43 12.4932 23.3973 12.7173 23.5829C12.9424 23.768 12.9746 24.1002 12.789 24.3248C11.5067 25.8808 9.6264 26.9643 7.63226 27.2971C7.60273 27.3023 7.57426 27.3044 7.54526 27.3044C7.29217 27.3044 7.0686 27.1215 7.02589 26.8636C6.97791 26.5768 7.17195 26.3053 7.45931 26.2573C9.20564 25.9657 10.8518 25.0171 11.9754 23.6547Z" fill="#0086C9"/>
</svg>
