<svg width="20" height="20" viewBox="0 0 20 20" fill="none" xmlns="http://www.w3.org/2000/svg">
<path d="M10 0C15.523 0 20 4.477 20 10C20 15.523 15.523 20 10 20C4.477 20 0 15.523 0 10C0 4.477 4.477 0 10 0ZM9.855 7.21C9.67005 7.21 9.49266 7.2834 9.36179 7.41409C9.23092 7.54477 9.15726 7.72205 9.157 7.907V15.465C9.16383 15.6454 9.24031 15.8162 9.37037 15.9414C9.50043 16.0666 9.67395 16.1366 9.8545 16.1366C10.035 16.1366 10.2086 16.0666 10.3386 15.9414C10.4687 15.8162 10.5452 15.6454 10.552 15.465V7.907C10.552 7.72205 10.4786 7.54466 10.3479 7.41379C10.2172 7.28292 10.0399 7.20927 9.855 7.209V7.21ZM9.883 4.419C9.63635 4.419 9.3998 4.51698 9.22539 4.69139C9.05098 4.8658 8.953 5.10235 8.953 5.349C8.953 5.59565 9.05098 5.8322 9.22539 6.00661C9.3998 6.18102 9.63635 6.279 9.883 6.279C10.1297 6.279 10.3662 6.18102 10.5406 6.00661C10.715 5.8322 10.813 5.59565 10.813 5.349C10.813 5.10235 10.715 4.8658 10.5406 4.69139C10.3662 4.51698 10.1297 4.419 9.883 4.419Z" fill="#0086C9"/>
</svg>
