<svg width="18" height="22" viewBox="0 0 18 22" fill="none" xmlns="http://www.w3.org/2000/svg">
<path d="M9.40614 0.180506C9.14757 0.0655883 8.85243 0.0655881 8.59386 0.180506L0.593862 3.73606C0.232734 3.89656 0 4.25468 0 4.64987V10C0 15.4648 3.72298 20.5805 8.76326 21.9392C8.91816 21.981 9.08184 21.981 9.23674 21.9392C14.277 20.5805 18 15.4648 18 10V4.64987C18 4.25468 17.7673 3.89656 17.4061 3.73606L9.40614 0.180506ZM8 7C8 6.44772 8.44772 6 9 6V6C9.55228 6 10 6.44772 10 7V7C10 7.55228 9.55228 8 9 8V8C8.44772 8 8 7.55228 8 7V7ZM8 10C8 9.44772 8.44772 9 9 9V9C9.55228 9 10 9.44772 10 10V15C10 15.5523 9.55228 16 9 16V16C8.44772 16 8 15.5523 8 15V10Z" fill="#0086C9"/>
</svg>
