<svg width="30" height="30" viewBox="0 0 30 30" fill="none" xmlns="http://www.w3.org/2000/svg">
<path d="M29.3315 0.66341C29.4863 0.816169 29.5399 1.04409 29.4695 1.24981L21.2849 25.1812C21.6026 25.9223 21.6339 26.7854 21.3018 27.5873C20.8082 28.7792 19.6516 29.4999 18.4353 29.5C18.0408 29.5 17.6402 29.4242 17.2537 29.2641C13.5319 27.7225 10.2005 25.4965 7.35199 22.648C4.50348 19.7995 2.27755 16.4681 0.735849 12.7464C0.0821018 11.168 0.834347 9.35201 2.41264 8.69821C3.36347 8.3045 4.40016 8.42152 5.21749 8.92131L28.7434 0.533023C28.948 0.45973 29.1768 0.510707 29.3315 0.66341ZM26.5543 6.27297L28.0176 1.99457L20.5003 4.67492L20.7453 5.26653C20.865 5.55551 20.7278 5.88691 20.4388 6.00659C20.3679 6.03593 20.2945 6.04987 20.2222 6.04987C20 6.04987 19.7891 5.91818 19.6987 5.70005L19.4319 5.05582L12.391 7.56625C12.712 8.06887 12.855 8.67561 12.7744 9.28817C12.6845 9.97058 12.3344 10.577 11.7883 10.9961C11.3338 11.3448 10.7887 11.5289 10.2252 11.5289C10.1118 11.5289 9.99785 11.5214 9.88355 11.5063C9.20126 11.4166 8.59469 11.0664 8.17578 10.5204C7.88844 10.1459 7.71302 9.71003 7.66006 9.25306L6.14328 9.79386C6.26715 9.97239 6.37454 10.1662 6.46098 10.375C8.94734 16.3776 13.6225 21.0527 19.6252 23.5392C19.942 23.6704 20.2248 23.8491 20.4704 24.0626L23.3984 15.5011L21.8009 14.2753C21.5527 14.0849 21.5059 13.7294 21.6963 13.4812C21.8867 13.233 22.2423 13.1863 22.4905 13.3766L23.7852 14.3701L24.911 11.0782C24.2592 10.9734 23.6815 10.6298 23.2779 10.1039C22.859 9.5579 22.6777 8.88144 22.7676 8.19915C22.953 6.79055 24.2497 5.79498 25.6584 5.98093C25.9751 6.02262 26.2783 6.12271 26.5543 6.27297ZM20.2552 27.1537C20.67 26.1525 20.1928 25.0005 19.1915 24.5859C16.0872 23.3 13.3085 21.4434 10.9325 19.0674C8.55657 16.6915 6.69989 13.9128 5.41409 10.8085C5.21318 10.3235 4.83545 9.94577 4.35043 9.74487C3.86542 9.54396 3.33118 9.54396 2.84617 9.74487C2.36115 9.94577 1.98342 10.3235 1.78251 10.8085C1.58161 11.2936 1.58161 11.8278 1.78251 12.3128C4.78657 19.565 10.4349 25.2134 17.6872 28.2174C18.6883 28.6322 19.8405 28.155 20.2552 27.1537ZM8.77962 8.85385C8.75521 9.20503 8.85813 9.54895 9.07444 9.83085C9.30921 10.1368 9.64906 10.333 10.0313 10.3833C10.4139 10.4336 10.7927 10.3321 11.0987 10.0973C11.4046 9.86257 11.6008 9.52267 11.6512 9.14034C11.7083 8.70614 11.5657 8.2768 11.2729 7.96494L8.77962 8.85385ZM25.2873 9.9776L26.1778 7.37429C25.9828 7.23059 25.7541 7.13612 25.5106 7.10406C24.721 7.00029 23.9946 7.55775 23.8907 8.34698C23.8404 8.72925 23.9419 9.10834 24.1767 9.41426C24.4114 9.72017 24.7513 9.91637 25.1336 9.96673C25.1848 9.97341 25.2361 9.97636 25.2873 9.9776ZM18.1938 7.65379C19.6231 7.84197 20.6328 9.15786 20.4447 10.5871C20.274 11.8833 19.1607 12.8607 17.855 12.8607C17.7408 12.8607 17.6251 12.8531 17.5111 12.838C16.0818 12.6498 15.0721 11.3339 15.2603 9.90458C15.4309 8.60851 16.5442 7.63115 17.8499 7.63115C17.9642 7.63115 18.0799 7.63873 18.1938 7.65379ZM19.305 10.4371C19.4104 9.63629 18.8446 8.899 18.0437 8.79347C17.9794 8.78497 17.9142 8.78071 17.8499 8.78071C17.1189 8.78071 16.4956 9.32834 16.4 10.0546C16.2946 10.8555 16.8603 11.5929 17.6612 11.6983C17.7255 11.7068 17.7908 11.7111 17.855 11.7111C18.586 11.7111 19.2094 11.1634 19.305 10.4371ZM18.1939 14.7849C19.6232 14.9732 20.6329 16.2891 20.4446 17.7183C20.274 19.0144 19.1607 19.9918 17.855 19.9918C17.7408 19.9918 17.6252 19.9843 17.5113 19.9693C16.8189 19.8781 16.2035 19.5227 15.7784 18.9687C15.3532 18.4146 15.1693 17.7282 15.2605 17.0358C15.4311 15.7397 16.5444 14.7623 17.8501 14.7623C17.9643 14.7623 18.08 14.7699 18.1939 14.7849ZM19.3051 17.5683C19.4104 16.7674 18.8447 16.0301 18.0439 15.9246C17.9796 15.9161 17.9143 15.9119 17.8501 15.9119C17.1192 15.9119 16.4958 16.4595 16.4002 17.1858C16.3491 17.5738 16.4522 17.9584 16.6904 18.2689C16.9286 18.5793 17.2735 18.7784 17.6614 18.8295C17.7257 18.838 17.7909 18.8423 17.8551 18.8423C18.5861 18.8423 19.2094 18.2946 19.3051 17.5683ZM14.2735 12.6305C14.5814 12.6732 14.798 12.9712 14.7574 13.2958C14.7202 13.5942 14.4785 13.8115 14.2008 13.8115C14.1763 13.8115 14.1516 13.8098 14.1267 13.8063L12.3987 13.5663C12.0909 13.5236 11.8741 13.2257 11.9147 12.9009C11.9553 12.5763 12.2378 12.3473 12.5455 12.3905L14.2735 12.6305ZM13.806 16.4778C13.8513 16.7982 13.6093 17.0921 13.2655 17.1343C13.2377 17.1377 13.2101 17.1393 13.1828 17.1393C12.8725 17.1393 12.6027 16.925 12.5612 16.6305L12.3907 15.4238C12.3454 15.1034 12.5874 14.8096 12.9312 14.7674C13.275 14.7251 13.5904 14.9507 13.6356 15.2711L13.806 16.4778ZM6.60494 15.4587C6.7466 15.6788 6.68279 15.9718 6.46239 16.1133C6.38307 16.1642 6.29421 16.1885 6.20636 16.1885C6.05108 16.1885 5.89909 16.1125 5.80824 15.9732C5.66421 15.7555 5.72323 15.4619 5.94083 15.3173C6.15882 15.1724 6.4528 15.2308 6.59807 15.4483C6.59958 15.4505 6.60352 15.4565 6.60494 15.4587ZM6.12438 14.3762C6.29194 14.6525 6.18958 15.0043 5.89589 15.162C5.80027 15.2133 5.696 15.2377 5.59315 15.2377C5.38046 15.2377 5.17378 15.1332 5.06082 14.9469C4.43893 13.921 3.87984 12.8473 3.39925 11.7556C3.26982 11.4617 3.4181 11.1247 3.73052 11.003C4.04269 10.8813 4.40103 11.0207 4.53039 11.3147C4.99146 12.3619 5.52777 13.392 6.12438 14.3762Z" fill="#0086C9"/>
</svg>
