<svg width="20" height="30" viewBox="0 0 20 30" fill="none" xmlns="http://www.w3.org/2000/svg">
<path d="M10.7143 7.025H18.5714C19.3604 7.025 20 7.67419 20 8.475V10.65C20 11.4508 19.3604 12.1 18.5714 12.1H18.448L17.2418 22.7272L17.29 22.9594L17.2136 22.9758L16.7329 27.2114C16.6083 28.3091 15.6927 29.1375 14.6041 29.1375H5.39589C4.3073 29.1375 3.39169 28.3091 3.26711 27.2114L1.552 12.1H1.42857C0.639593 12.1 0 11.4508 0 10.65V8.475C0 7.67419 0.639593 7.025 1.42857 7.025H9.28571V3.4C9.28571 3.07983 9.49262 2.79757 9.79475 2.70557L16.9376 0.530575L17.3481 1.91942L10.7143 3.93942V7.025ZM4.01677 24.3139L16.2807 21.6933L17.0149 15.2238L3.3596 18.5238L4.01677 24.3139ZM4.18096 25.7606L4.3315 27.087C4.39379 27.6358 4.85159 28.05 5.39589 28.05H14.6041C15.1484 28.05 15.6062 27.6358 15.6685 27.087L16.1083 23.212L4.18096 25.7606ZM3.19495 17.0731L17.1889 13.6912L17.3695 12.1H2.63051L3.19495 17.0731ZM1.42857 8.1125C1.23133 8.1125 1.07143 8.2748 1.07143 8.475V10.65C1.07143 10.8502 1.23133 11.0125 1.42857 11.0125H18.5714C18.7687 11.0125 18.9286 10.8502 18.9286 10.65V8.475C18.9286 8.2748 18.7687 8.1125 18.5714 8.1125H1.42857Z" fill="#0086C9"/>
</svg>
