<svg width="29" height="23" viewBox="0 0 29 23" fill="none" xmlns="http://www.w3.org/2000/svg">
<path d="M1.38139 7.3724C1.62264 7.13351 1.94853 6.99965 2.28804 7H25.9765C26.316 6.99965 26.6419 7.13351 26.8832 7.3724C27.1244 7.61128 27.2615 7.93584 27.2645 8.27534L27.2266 8.62258L23.9625 20.1322C23.8067 20.6697 23.4805 21.1419 23.0329 21.4779C22.5854 21.8138 22.0408 21.9952 21.4813 21.9947H6.78329C6.22479 21.9968 5.68099 21.8158 5.23514 21.4794C4.7893 21.143 4.46598 20.6698 4.31469 20.1322L1.05059 8.62258C1.01574 8.51018 0.9987 8.39301 1.00008 8.27534C1.00308 7.93584 1.14013 7.61128 1.38139 7.3724Z" stroke="#0086C9" stroke-width="2" stroke-linejoin="round"/>
<path d="M5 7C5 7 8.50575 1 14.4286 1C20.3514 1 23 7 23 7" stroke="#0086C9" stroke-width="2" stroke-linejoin="round"/>
<path d="M14 10.75L14 18.25C14 18.6642 14.3358 19 14.75 19C15.1642 19 15.5 18.6642 15.5 18.25V10.75C15.5 10.3358 15.1642 10 14.75 10C14.3358 10 14 10.3358 14 10.75Z" stroke="#0086C9"/>
<path d="M5.75446 10.9161L7.85299 18.4708C7.93987 18.7835 8.22465 19 8.54927 19C9.02717 19 9.37345 18.5444 9.24555 18.084L7.14705 10.5292C7.06017 10.2165 6.77538 10 6.45076 10C5.97285 10 5.62656 10.4556 5.75446 10.9161Z" stroke="#0086C9"/>
<path d="M21.3529 10.5292L19.2545 18.084C19.1265 18.5444 19.4728 19 19.9507 19C20.2753 19 20.5601 18.7835 20.647 18.4708L22.7455 10.9161C22.8734 10.4556 22.5272 10 22.0492 10C21.7246 10 21.4398 10.2165 21.3529 10.5292Z" stroke="#0086C9"/>
</svg>
