<svg width="24" height="24" viewBox="0 0 24 24" fill="none" xmlns="http://www.w3.org/2000/svg">
<path d="M12 12C13.4918 12 14.9226 11.4074 15.9775 10.3525C17.0324 9.29758 17.625 7.86684 17.625 6.375C17.625 4.88316 17.0324 3.45242 15.9775 2.39752C14.9226 1.34263 13.4918 0.75 12 0.75C10.5082 0.75 9.07742 1.34263 8.02252 2.39752C6.96763 3.45242 6.375 4.88316 6.375 6.375C6.375 7.86684 6.96763 9.29758 8.02252 10.3525C9.07742 11.4074 10.5082 12 12 12ZM15.75 6.375C15.75 7.36956 15.3549 8.32339 14.6516 9.02665C13.9484 9.72991 12.9946 10.125 12 10.125C11.0054 10.125 10.0516 9.72991 9.34835 9.02665C8.64509 8.32339 8.25 7.36956 8.25 6.375C8.25 5.38044 8.64509 4.42661 9.34835 3.72335C10.0516 3.02009 11.0054 2.625 12 2.625C12.9946 2.625 13.9484 3.02009 14.6516 3.72335C15.3549 4.42661 15.75 5.38044 15.75 6.375ZM23.25 21.375C23.25 23.25 21.375 23.25 21.375 23.25H2.625C2.625 23.25 0.75 23.25 0.75 21.375C0.75 19.5 2.625 13.875 12 13.875C21.375 13.875 23.25 19.5 23.25 21.375ZM21.375 21.3675C21.3731 20.9063 21.0863 19.5187 19.815 18.2475C18.5925 17.025 16.2919 15.75 12 15.75C7.70625 15.75 5.4075 17.025 4.185 18.2475C2.91375 19.5187 2.62875 20.9063 2.625 21.3675H21.375Z" fill="#0086C9"/>
</svg>
