<svg width="24" height="25" viewBox="0 0 24 25" fill="none" xmlns="http://www.w3.org/2000/svg">
<path d="M10.1869 1.16486C11.2343 0.281634 12.7657 0.281634 13.8131 1.16487L22.2506 8.28C22.8843 8.8144 23.25 9.60112 23.25 10.4301V22.6835C23.25 23.8916 22.2706 24.871 21.0625 24.871H16.6875C15.4794 24.871 14.5 23.8916 14.5 22.6835V15.8085C14.5 15.636 14.3601 15.496 14.1875 15.496H9.8125C9.63987 15.496 9.49999 15.636 9.49999 15.8085V22.6835C9.49999 23.8916 8.52062 24.871 7.3125 24.871H2.9375C1.72938 24.871 0.75 23.8916 0.75 22.6835V10.4301C0.75 9.60112 1.11569 8.8144 1.7494 8.28L10.1869 1.16486ZM12.6044 2.59825C12.2552 2.30383 11.7448 2.30383 11.3956 2.59825L2.95814 9.71339C2.7469 9.89151 2.625 10.1538 2.625 10.4301V22.6835C2.625 22.8561 2.76491 22.996 2.9375 22.996H7.3125C7.48509 22.996 7.62499 22.8561 7.62499 22.6835V15.8085C7.62499 14.6004 8.60438 13.621 9.8125 13.621H14.1875C15.3956 13.621 16.375 14.6004 16.375 15.8085V22.6835C16.375 22.8561 16.5149 22.996 16.6875 22.996H21.0625C21.2351 22.996 21.375 22.8561 21.375 22.6835V10.4301C21.375 10.1538 21.2531 9.89151 21.0419 9.71339L12.6044 2.59825Z" fill="#0086C9"/>
</svg>
